# https://github.com/mikedh/trimesh
mtllib material.mtl

o table1.obj
usemtl Mesa1
v 0.06653067 0.49999993 0.10919766
v 0.06653067 0.49999993 0.10919766
v 0.06653067 0.49999993 0.10919766
v -0.49099564 0.49999993 0.03235765
v -0.49099564 0.49999993 0.03235765
v -0.49099564 0.49999993 0.03235765
v -0.49099564 0.49999993 0.03235765
v 0.06653067 0.49999993 0.03235765
v 0.06653067 0.49999993 0.03235765
v 0.06653067 0.47808797 0.10919766
v 0.06653067 0.47808797 0.10919766
v 0.06653067 0.47808797 0.10919766
v 0.50000000 0.47808797 0.03235765
v 0.50000000 0.47808797 0.03235765
v 0.50000000 0.47808797 0.03235765
v 0.06653067 0.47808797 0.03235765
v 0.06653067 0.47808797 0.03235765
v 0.50000000 0.47808797 0.10919766
v 0.50000000 0.47808797 0.10919766
v 0.50000000 0.49999993 0.03235765
v 0.50000000 0.49999993 0.03235765
v 0.50000000 0.49999993 0.03235765
v -0.49099564 0.47808797 0.10919766
v -0.49099564 0.47808797 0.10919766
v -0.49099564 0.47808797 0.10919766
v -0.49099564 0.47808797 0.10919766
v -0.49099564 0.47808797 0.03235765
v -0.49099564 0.47808797 0.03235765
v -0.49099564 0.47808797 0.03235765
v -0.49099564 0.47808797 0.03235765
v 0.50000000 0.49999993 0.82404126
v 0.50000000 0.49999993 0.82404126
v 0.50000000 0.49999993 0.10919766
v 0.50000000 0.49999993 0.10919766
v -0.49999989 0.49599798 0.09932722
v -0.49999989 0.48208992 0.04222809
v -0.49999989 0.49599798 0.04222809
v 0.49707263 0.49999993 0.98802378
v 0.49707263 0.49999993 0.98802378
v 0.49707263 0.49999993 0.98802378
v 0.48907477 0.49999993 0.99679106
v 0.48907477 0.49999993 0.99679106
v 0.47814938 0.49999993 1.00000000
v 0.47814938 0.49999993 1.00000000
v 0.06653067 0.49999993 0.82404126
v 0.06653067 0.49999993 0.82404126
v 0.06653067 0.49999993 0.82404126
v 0.50000000 0.47808797 0.82404126
v 0.50000000 0.47808797 0.82404126
v 0.06653067 0.47808797 0.82404126
v 0.06653067 0.47808797 0.82404126
v 0.06653067 0.47808797 0.82404126
v 0.50000000 0.49999993 0.97604757
v 0.50000000 0.49999993 0.97604757
v 0.50000000 0.49999993 0.97604757
v 0.06653067 0.47808797 1.00000000
v 0.06653067 0.47808797 1.00000000
v -0.47814938 0.49999993 1.00000000
v -0.47814938 0.49999993 1.00000000
v 0.06653067 0.49999993 1.00000000
v 0.06653067 0.49999993 1.00000000
v 0.47814938 0.47808797 1.00000000
v 0.47814938 0.47808797 1.00000000
v -0.50000000 0.49999993 0.84399367
v -0.50000000 0.49999993 0.84399367
v -0.50000000 0.47808797 0.97604757
v -0.50000000 0.47808797 0.97604757
v -0.50000000 0.47808797 0.84399367
v -0.50000000 0.47808797 0.84399367
v -0.49756139 0.49999993 0.83401747
v -0.49756139 0.49999993 0.83401747
v -0.49089926 0.49999993 0.82671434
v -0.49089926 0.49999993 0.82671434
v -0.49089926 0.49999993 0.82671434
v -0.48179838 0.49999993 0.82404126
v -0.48179838 0.49999993 0.82404126
v -0.48179838 0.49999993 0.82404126
v -0.49707252 0.47808797 0.98802378
v -0.49707252 0.47808797 0.98802378
v -0.48907477 0.47808797 0.99679106
v -0.48907477 0.47808797 0.99679106
v -0.47814938 0.47808797 1.00000000
v -0.47814938 0.47808797 1.00000000
v -0.46700276 0.00000000 0.98359187
v 0.46700227 0.48488369 0.98359187
v 0.46700227 0.00000000 0.98359187
v -0.48144966 0.48488369 0.96775538
v -0.48144966 0.00000000 0.94175850
v -0.48144966 0.48488369 0.94175850
v 0.48144902 0.00000000 0.96775538
v 0.48144902 0.48488369 0.94175850
v 0.48144902 0.00000000 0.94175850
v -0.46700276 0.48488369 0.92592201
v -0.47721825 0.00000000 0.93056039
v -0.47721825 0.00000000 0.93056039
v -0.46700276 0.00000000 0.92592201
v -0.47721825 0.48488369 0.93056039
v -0.47721825 0.48488369 0.93056039
v -0.47721825 0.48488369 0.97895341
v -0.47721825 0.48488369 0.97895341
v -0.46700276 0.48488369 0.98359187
v -0.47721825 0.00000000 0.97895341
v -0.47721825 0.00000000 0.97895341
v 0.46700227 0.00000000 0.92592201
v 0.47721776 0.48488369 0.93056039
v 0.47721776 0.48488369 0.93056039
v 0.46700227 0.48488369 0.92592201
v 0.47721776 0.00000000 0.93056039
v 0.47721776 0.00000000 0.93056039
v 0.47721776 0.00000000 0.97895341
v 0.47721776 0.00000000 0.97895341
v 0.47721776 0.48488369 0.97895341
v 0.47721776 0.48488369 0.97895341
v 0.43355125 0.48488369 0.92592201
v 0.43355125 0.00000000 0.92592201
v -0.49736275 0.47926016 0.03524864
v -0.49736275 0.47926016 0.03524864
v -0.49736275 0.47926016 0.03524864
v -0.49736275 0.47926016 0.03524864
v -0.49736275 0.49882777 0.03524864
v -0.49736275 0.49882777 0.03524864
v -0.49736275 0.49882777 0.03524864
v -0.49736275 0.49882777 0.03524864
v -0.49099564 0.49999993 0.10919766
v -0.49099564 0.49999993 0.10919766
v -0.49099564 0.49999993 0.10919766
v -0.49099564 0.49999993 0.10919766
v -0.49736275 0.49882777 0.10630669
v -0.49736275 0.49882777 0.10630669
v -0.49736275 0.49882777 0.10630669
v -0.49736275 0.49882777 0.10630669
v -0.49736275 0.47926016 0.10630669
v -0.49736275 0.47926016 0.10630669
v -0.49736275 0.47926016 0.10630669
v -0.49736275 0.47926016 0.10630669
v -0.49999989 0.48208992 0.09932722
v 0.48907477 0.47808797 0.99679106
v 0.48907477 0.47808797 0.99679106
v 0.49707263 0.47808797 0.98802378
v 0.49707263 0.47808797 0.98802378
v 0.49707263 0.47808797 0.98802378
v 0.50000000 0.47808797 0.97604757
v 0.50000000 0.47808797 0.97604757
v 0.50000000 0.47808797 0.97604757
v -0.50000000 0.49999993 0.97604757
v -0.50000000 0.49999993 0.97604757
v -0.49707252 0.49999993 0.98802378
v -0.49707252 0.49999993 0.98802378
v -0.48907477 0.49999993 0.99679106
v -0.48907477 0.49999993 0.99679106
v -0.49089926 0.47808797 0.82671434
v -0.49089926 0.47808797 0.82671434
v -0.49089926 0.47808797 0.82671434
v -0.48179838 0.47808797 0.82404126
v -0.48179838 0.47808797 0.82404126
v -0.48179838 0.47808797 0.82404126
v -0.49756139 0.47808797 0.83401747
v -0.49756139 0.47808797 0.83401747
v 0.27714888 0.48488369 0.92592201
v 0.27714888 0.48488369 0.92592201
v 0.27714888 0.00000000 0.92592201
v 0.27714888 0.00000000 0.92592201
v 0.22060650 0.00000000 0.92592201
v 0.22060650 0.00000000 0.92592201
v 0.22060650 0.48488369 0.28884814
v 0.22060650 0.48488369 0.92592201
v 0.22060650 0.48488369 0.92592201
v 0.27714888 0.48488369 0.28884814
v 0.24063288 0.48488369 0.26689527
v 0.23061963 0.00000000 0.26983650
v 0.23061963 0.00000000 0.26983650
v 0.24063288 0.00000000 0.26689527
v 0.23061963 0.48488369 0.26983650
v 0.23061963 0.48488369 0.26983650
v 0.22328962 0.00000000 0.27787176
v 0.22328962 0.00000000 0.27787176
v 0.22328962 0.48488369 0.27787176
v 0.22328962 0.48488369 0.27787176
v 0.22060650 0.00000000 0.28884814
v 0.27446587 0.00000000 0.27787176
v 0.27446587 0.00000000 0.27787176
v 0.27714888 0.00000000 0.28884814
v 0.27446587 0.48488369 0.27787176
v 0.27446587 0.48488369 0.27787176
v 0.26713564 0.00000000 0.26983650
v 0.26713564 0.00000000 0.26983650
v 0.26713564 0.48488369 0.26983650
v 0.26713564 0.48488369 0.26983650
v 0.25712250 0.00000000 0.26689527
v 0.25712250 0.48488369 0.26689527
v -0.46599577 0.47777782 0.03288591
v -0.46599577 0.47777782 0.03288591
v -0.44831815 0.48103214 0.00000000
v -0.44831815 0.48103214 0.00000000
v -0.44831815 0.48103214 0.00000000
v -0.46599577 0.47777782 0.00000000
v -0.46599577 0.47777782 0.00000000
v -0.46599577 0.47777782 0.00000000
v -0.44831815 0.48103214 0.03288591
v -0.44831815 0.48103214 0.03288591
v -0.44099576 0.48888886 0.00000000
v -0.44099576 0.48888886 0.00000000
v -0.44099576 0.48888886 0.00000000
v -0.44099576 0.48888886 0.03288591
v -0.44099576 0.48888886 0.03288591
v -0.44831815 0.49674565 0.00000000
v -0.44831815 0.49674565 0.00000000
v -0.44831815 0.49674565 0.00000000
v -0.44831815 0.49674565 0.03288591
v -0.44831815 0.49674565 0.03288591
v -0.46599577 0.50000000 0.00000000
v -0.46599577 0.50000000 0.00000000
v -0.46599577 0.50000000 0.00000000
v -0.46599577 0.50000000 0.03288591
v -0.46599577 0.50000000 0.03288591
v -0.48367339 0.49674565 0.00000000
v -0.48367339 0.49674565 0.00000000
v -0.48367339 0.49674565 0.00000000
v -0.48367339 0.49674565 0.03288591
v -0.48367339 0.49674565 0.03288591
v -0.49099575 0.48888886 0.00000000
v -0.49099575 0.48888886 0.00000000
v -0.49099575 0.48888886 0.00000000
v -0.49099575 0.48888886 0.03288591
v -0.49099575 0.48888886 0.03288591
v -0.48367339 0.48103214 0.00000000
v -0.48367339 0.48103214 0.00000000
v -0.48367339 0.48103214 0.00000000
v -0.48367339 0.48103214 0.03288591
v -0.48367339 0.48103214 0.03288591
v 0.45644014 0.47777782 0.03288591
v 0.45644014 0.47777782 0.03288591
v 0.47411776 0.48103214 0.00000000
v 0.47411776 0.48103214 0.00000000
v 0.47411776 0.48103214 0.00000000
v 0.45644014 0.47777782 0.00000000
v 0.45644014 0.47777782 0.00000000
v 0.45644014 0.47777782 0.00000000
v 0.47411776 0.48103214 0.03288591
v 0.47411776 0.48103214 0.03288591
v 0.48144001 0.48888886 0.00000000
v 0.48144001 0.48888886 0.00000000
v 0.48144001 0.48888886 0.00000000
v 0.48144001 0.48888886 0.03288591
v 0.48144001 0.48888886 0.03288591
v 0.47411776 0.49674565 0.00000000
v 0.47411776 0.49674565 0.00000000
v 0.47411776 0.49674565 0.00000000
v 0.47411776 0.49674565 0.03288591
v 0.47411776 0.49674565 0.03288591
v 0.45644014 0.50000000 0.00000000
v 0.45644014 0.50000000 0.00000000
v 0.45644014 0.50000000 0.00000000
v 0.45644014 0.50000000 0.03288591
v 0.45644014 0.50000000 0.03288591
v 0.43876237 0.49674565 0.00000000
v 0.43876237 0.49674565 0.00000000
v 0.43876237 0.49674565 0.00000000
v 0.43876237 0.49674565 0.03288591
v 0.43876237 0.49674565 0.03288591
v 0.43144002 0.48888886 0.00000000
v 0.43144002 0.48888886 0.00000000
v 0.43144002 0.48888886 0.00000000
v 0.43144002 0.48888886 0.03288591
v 0.43144002 0.48888886 0.03288591
v 0.43876237 0.48103214 0.00000000
v 0.43876237 0.48103214 0.00000000
v 0.43876237 0.48103214 0.00000000
v 0.43876237 0.48103214 0.03288591
v 0.43876237 0.48103214 0.03288591
v -0.49099564 -0.49999993 0.03235765
v -0.49099564 -0.49999993 0.03235765
v -0.49099564 -0.49999993 0.03235765
v -0.49099564 -0.49999993 0.03235765
v 0.06653067 -0.49999993 0.10919766
v 0.06653067 -0.49999993 0.10919766
v 0.06653067 -0.49999993 0.10919766
v 0.06653067 -0.49999993 0.03235765
v 0.06653067 -0.49999993 0.03235765
v 0.50000000 -0.47808797 0.03235765
v 0.50000000 -0.47808797 0.03235765
v 0.50000000 -0.47808797 0.03235765
v 0.06653067 -0.47808797 0.10919766
v 0.06653067 -0.47808797 0.10919766
v 0.06653067 -0.47808797 0.10919766
v 0.06653067 -0.47808797 0.03235765
v 0.06653067 -0.47808797 0.03235765
v 0.50000000 -0.49999993 0.03235765
v 0.50000000 -0.49999993 0.03235765
v 0.50000000 -0.49999993 0.03235765
v 0.50000000 -0.47808797 0.10919766
v 0.50000000 -0.47808797 0.10919766
v -0.49099564 -0.47808797 0.10919766
v -0.49099564 -0.47808797 0.10919766
v -0.49099564 -0.47808797 0.10919766
v -0.49099564 -0.47808797 0.10919766
v -0.49099564 -0.47808797 0.03235765
v -0.49099564 -0.47808797 0.03235765
v -0.49099564 -0.47808797 0.03235765
v -0.49099564 -0.47808797 0.03235765
v 0.50000000 -0.49999993 0.82404126
v 0.50000000 -0.49999993 0.82404126
v 0.50000000 -0.49999993 0.10919766
v 0.50000000 -0.49999993 0.10919766
v -0.49999989 -0.48208992 0.04222809
v -0.49999989 -0.49599798 0.09932722
v -0.49999989 -0.49599798 0.04222809
v 0.50000000 -0.49999993 0.97604757
v 0.50000000 -0.49999993 0.97604757
v 0.47814938 -0.49999993 1.00000000
v 0.47814938 -0.49999993 1.00000000
v 0.06653067 -0.49999993 0.82404126
v 0.06653067 -0.49999993 0.82404126
v 0.06653067 -0.49999993 0.82404126
v 0.50000000 -0.47808797 0.82404126
v 0.50000000 -0.47808797 0.82404126
v 0.06653067 -0.47808797 0.82404126
v 0.06653067 -0.47808797 0.82404126
v 0.06653067 -0.47808797 0.82404126
v -0.47814938 -0.49999993 1.00000000
v -0.47814938 -0.49999993 1.00000000
v 0.06653067 -0.47808797 1.00000000
v 0.06653067 -0.47808797 1.00000000
v 0.06653067 -0.49999993 1.00000000
v 0.06653067 -0.49999993 1.00000000
v 0.47814938 -0.47808797 1.00000000
v 0.47814938 -0.47808797 1.00000000
v -0.50000000 -0.47808797 0.97604757
v -0.50000000 -0.47808797 0.97604757
v -0.50000000 -0.49999993 0.84399367
v -0.50000000 -0.49999993 0.84399367
v -0.50000000 -0.47808797 0.84399367
v -0.50000000 -0.47808797 0.84399367
v -0.48179838 -0.49999993 0.82404126
v -0.48179838 -0.49999993 0.82404126
v -0.48179838 -0.49999993 0.82404126
v -0.50000000 -0.49999993 0.97604757
v -0.50000000 -0.49999993 0.97604757
v -0.48179838 -0.47808797 0.82404126
v -0.48179838 -0.47808797 0.82404126
v -0.48179838 -0.47808797 0.82404126
v -0.47814938 -0.47808797 1.00000000
v -0.47814938 -0.47808797 1.00000000
v 0.46700227 -0.48488369 0.98359187
v -0.48144966 -0.48488369 0.96775538
v -0.48144966 -0.48488369 0.94175850
v 0.48144902 -0.48488369 0.94175850
v -0.46700276 -0.48488369 0.92592201
v -0.47721825 -0.48488369 0.93056039
v -0.47721825 -0.48488369 0.93056039
v -0.47721825 -0.48488369 0.97895341
v -0.47721825 -0.48488369 0.97895341
v -0.46700276 -0.48488369 0.98359187
v 0.47721776 -0.48488369 0.93056039
v 0.47721776 -0.48488369 0.93056039
v 0.46700227 -0.48488369 0.92592201
v 0.47721776 -0.48488369 0.97895341
v 0.47721776 -0.48488369 0.97895341
v 0.43355125 -0.48488369 0.92592201
v -0.49736275 -0.47926016 0.03524864
v -0.49736275 -0.47926016 0.03524864
v -0.49736275 -0.47926016 0.03524864
v -0.49736275 -0.47926016 0.03524864
v -0.49736275 -0.49882777 0.03524864
v -0.49736275 -0.49882777 0.03524864
v -0.49736275 -0.49882777 0.03524864
v -0.49736275 -0.49882777 0.03524864
v -0.49099564 -0.49999993 0.10919766
v -0.49099564 -0.49999993 0.10919766
v -0.49099564 -0.49999993 0.10919766
v -0.49099564 -0.49999993 0.10919766
v -0.49736275 -0.49882777 0.10630669
v -0.49736275 -0.49882777 0.10630669
v -0.49736275 -0.49882777 0.10630669
v -0.49736275 -0.49882777 0.10630669
v -0.49736275 -0.47926016 0.10630669
v -0.49736275 -0.47926016 0.10630669
v -0.49736275 -0.47926016 0.10630669
v -0.49736275 -0.47926016 0.10630669
v -0.49999989 -0.48208992 0.09932722
v 0.48907477 -0.47808797 0.99679106
v 0.48907477 -0.47808797 0.99679106
v 0.49707263 -0.47808797 0.98802378
v 0.49707263 -0.47808797 0.98802378
v 0.49707263 -0.47808797 0.98802378
v 0.48907477 -0.49999993 0.99679106
v 0.48907477 -0.49999993 0.99679106
v 0.50000000 -0.47808797 0.97604757
v 0.50000000 -0.47808797 0.97604757
v 0.50000000 -0.47808797 0.97604757
v 0.49707263 -0.49999993 0.98802378
v 0.49707263 -0.49999993 0.98802378
v 0.49707263 -0.49999993 0.98802378
v -0.49707252 -0.47808797 0.98802378
v -0.49707252 -0.47808797 0.98802378
v -0.48907477 -0.47808797 0.99679106
v -0.48907477 -0.47808797 0.99679106
v -0.49707252 -0.49999993 0.98802378
v -0.49707252 -0.49999993 0.98802378
v -0.48907477 -0.49999993 0.99679106
v -0.48907477 -0.49999993 0.99679106
v -0.49089926 -0.47808797 0.82671434
v -0.49089926 -0.47808797 0.82671434
v -0.49089926 -0.47808797 0.82671434
v -0.49756139 -0.47808797 0.83401747
v -0.49756139 -0.47808797 0.83401747
v -0.49089926 -0.49999993 0.82671434
v -0.49089926 -0.49999993 0.82671434
v -0.49089926 -0.49999993 0.82671434
v -0.49756139 -0.49999993 0.83401747
v -0.49756139 -0.49999993 0.83401747
v 0.27714888 -0.48488369 0.92592201
v 0.27714888 -0.48488369 0.92592201
v 0.22060650 -0.48488369 0.28884814
v 0.22060650 -0.48488369 0.92592201
v 0.22060650 -0.48488369 0.92592201
v 0.27714888 -0.48488369 0.28884814
v 0.24063288 -0.48488369 0.26689527
v 0.23061963 -0.48488369 0.26983650
v 0.23061963 -0.48488369 0.26983650
v 0.22328962 -0.48488369 0.27787176
v 0.22328962 -0.48488369 0.27787176
v 0.27446587 -0.48488369 0.27787176
v 0.27446587 -0.48488369 0.27787176
v 0.26713564 -0.48488369 0.26983650
v 0.26713564 -0.48488369 0.26983650
v 0.25712250 -0.48488369 0.26689527
v -0.44831815 -0.48103214 0.00000000
v -0.44831815 -0.48103214 0.00000000
v -0.44831815 -0.48103214 0.00000000
v -0.46599577 -0.47777782 0.03288591
v -0.46599577 -0.47777782 0.03288591
v -0.46599577 -0.47777782 0.00000000
v -0.46599577 -0.47777782 0.00000000
v -0.46599577 -0.47777782 0.00000000
v -0.44099576 -0.48888886 0.00000000
v -0.44099576 -0.48888886 0.00000000
v -0.44099576 -0.48888886 0.00000000
v -0.44831815 -0.48103214 0.03288591
v -0.44831815 -0.48103214 0.03288591
v -0.44831815 -0.49674565 0.00000000
v -0.44831815 -0.49674565 0.00000000
v -0.44831815 -0.49674565 0.00000000
v -0.44099576 -0.48888886 0.03288591
v -0.44099576 -0.48888886 0.03288591
v -0.46599577 -0.50000000 0.00000000
v -0.46599577 -0.50000000 0.00000000
v -0.46599577 -0.50000000 0.00000000
v -0.44831815 -0.49674565 0.03288591
v -0.44831815 -0.49674565 0.03288591
v -0.48367339 -0.49674565 0.00000000
v -0.48367339 -0.49674565 0.00000000
v -0.48367339 -0.49674565 0.00000000
v -0.46599577 -0.50000000 0.03288591
v -0.46599577 -0.50000000 0.03288591
v -0.49099575 -0.48888886 0.00000000
v -0.49099575 -0.48888886 0.00000000
v -0.49099575 -0.48888886 0.00000000
v -0.48367339 -0.49674565 0.03288591
v -0.48367339 -0.49674565 0.03288591
v -0.48367339 -0.48103214 0.00000000
v -0.48367339 -0.48103214 0.00000000
v -0.48367339 -0.48103214 0.00000000
v -0.49099575 -0.48888886 0.03288591
v -0.49099575 -0.48888886 0.03288591
v -0.48367339 -0.48103214 0.03288591
v -0.48367339 -0.48103214 0.03288591
v 0.47411776 -0.48103214 0.00000000
v 0.47411776 -0.48103214 0.00000000
v 0.47411776 -0.48103214 0.00000000
v 0.45644014 -0.47777782 0.03288591
v 0.45644014 -0.47777782 0.03288591
v 0.45644014 -0.47777782 0.00000000
v 0.45644014 -0.47777782 0.00000000
v 0.45644014 -0.47777782 0.00000000
v 0.48144001 -0.48888886 0.00000000
v 0.48144001 -0.48888886 0.00000000
v 0.48144001 -0.48888886 0.00000000
v 0.47411776 -0.48103214 0.03288591
v 0.47411776 -0.48103214 0.03288591
v 0.47411776 -0.49674565 0.00000000
v 0.47411776 -0.49674565 0.00000000
v 0.47411776 -0.49674565 0.00000000
v 0.48144001 -0.48888886 0.03288591
v 0.48144001 -0.48888886 0.03288591
v 0.45644014 -0.50000000 0.00000000
v 0.45644014 -0.50000000 0.00000000
v 0.45644014 -0.50000000 0.00000000
v 0.47411776 -0.49674565 0.03288591
v 0.47411776 -0.49674565 0.03288591
v 0.43876237 -0.49674565 0.00000000
v 0.43876237 -0.49674565 0.00000000
v 0.43876237 -0.49674565 0.00000000
v 0.45644014 -0.50000000 0.03288591
v 0.45644014 -0.50000000 0.03288591
v 0.43144002 -0.48888886 0.00000000
v 0.43144002 -0.48888886 0.00000000
v 0.43144002 -0.48888886 0.00000000
v 0.43876237 -0.49674565 0.03288591
v 0.43876237 -0.49674565 0.03288591
v 0.43876237 -0.48103214 0.00000000
v 0.43876237 -0.48103214 0.00000000
v 0.43876237 -0.48103214 0.00000000
v 0.43144002 -0.48888886 0.03288591
v 0.43144002 -0.48888886 0.03288591
v 0.43876237 -0.48103214 0.03288591
v 0.43876237 -0.48103214 0.03288591
v -0.48144966 0.00000000 0.96775538
v 0.48144902 0.48488369 0.96775538
v 0.48144902 -0.48488369 0.96775538
vt 0.48014760 0.77841443
vt 0.95884341 0.52727282
vt 0.94488043 0.36937380
vt 0.09881609 0.92322427
vt 0.91695452 0.33217940
vt 0.50000000 0.62051541
vt 0.09881609 0.92322427
vt 0.91695452 0.49007830
vt 0.50000000 0.77841443
vt 0.95884329 0.36937380
vt 0.94488043 0.52727282
vt 0.73014760 0.74072957
vt 0.93091750 0.61284268
vt 0.75000000 0.61796528
vt 0.94488043 0.24381161
vt 0.75000000 0.74072957
vt 0.93091750 0.49007839
vt 0.94488043 0.26366401
vt 0.73014760 0.61796522
vt 0.91695452 0.61284268
vt 0.93091738 0.24381161
vt 0.50000000 0.90117878
vt 0.11547700 0.90117890
vt 0.73014760 0.89862871
vt 0.11547700 0.90117890
vt 0.94488043 0.36937380
vt 0.11562010 0.92322427
vt 0.93091750 0.33217940
vt 0.75000000 0.89862871
vt 0.11562010 0.92322427
vt 0.29546079 0.90117878
vt 0.93091750 0.44835091
vt 0.48014760 0.90117878
vt 0.93091738 0.26366401
vt 0.10320580 0.90521997
vt 0.11141970 0.91911042
vt 0.10313460 0.91893113
vt 0.91695452 0.32897601
vt 0.91695452 0.32897601
vt 0.25309429 0.90034968
vt 0.25082919 0.89808470
vt 0.91695452 0.32577270
vt 0.25000009 0.89499050
vt 0.91695452 0.32256940
vt 0.97280628 0.31319320
vt 0.94488043 0.18468690
vt 0.29546079 0.77841443
vt 0.94488043 0.44835091
vt 0.54546082 0.61796528
vt 0.54546082 0.74072969
vt 0.95884341 0.18468690
vt 0.95884341 0.31319320
vt 0.25618851 0.90117878
vt 0.93091738 0.48762321
vt 0.91695452 0.33217940
vt 0.50000012 0.74072969
vt 0.90299147 0.20599329
vt 0.91695452 0.05173254
vt 0.25000000 0.62415367
vt 0.25000009 0.77841443
vt 0.91695452 0.20599329
vt 0.90299159 0.32256940
vt 0.50000012 0.62415367
vt 0.29030579 0.61796528
vt 0.91695452 0.00800508
vt 0.90299147 0.04212248
vt 0.50618839 0.90117878
vt 0.54030579 0.90117878
vt 0.90299147 0.00800508
vt 0.91695452 0.00533676
vt 0.29288331 0.61865592
vt 0.91695452 0.00266832
vt 0.29477009 0.62054282
vt 0.91695452 0.00266832
vt 0.29546079 0.62312019
vt 0.97280628 0.46848741
vt 0.91695452 0.00000000
vt 0.90299159 0.04532587
vt 0.50309420 0.90034968
vt 0.50082910 0.89808458
vt 0.90299147 0.04852920
vt 0.50000000 0.89499039
vt 0.90299147 0.05173254
vt 0.21398290 0.30898270
vt 0.47850579 0.00000014
vt 0.47850579 0.30898270
vt 0.20771991 0.00000000
vt 0.20100330 0.30898270
vt 0.20100330 0.00000000
vt 0.48476881 0.30898270
vt 0.49148539 0.00000017
vt 0.49148539 0.30898270
vt 0.19474021 0.00000000
vt 0.19787180 0.30898270
vt 0.19787180 0.30898270
vt 0.19474030 0.30898270
vt 0.19787180 0.00000000
vt 0.19787180 0.00000000
vt 0.21085140 0.00000000
vt 0.21085140 0.00000000
vt 0.21398290 0.00000000
vt 0.21085130 0.30898270
vt 0.21085130 0.30898270
vt 0.49774841 0.30898270
vt 0.49461690 0.00000017
vt 0.49461690 0.00000017
vt 0.49774841 0.00000017
vt 0.49461690 0.30898270
vt 0.49461690 0.30898270
vt 0.48163730 0.30898270
vt 0.48163730 0.30898270
vt 0.48163730 0.00000014
vt 0.48163730 0.00000014
vt 0.50722218 0.00000021
vt 0.50722218 0.30898270
vt 0.11335790 0.92112988
vt 0.11335790 0.92112988
vt 0.11335790 0.92112988
vt 0.11335790 0.92112988
vt 0.10116650 0.92084658
vt 0.10116650 0.92084658
vt 0.10116650 0.92084658
vt 0.10116650 0.92084658
vt 0.09931892 0.90119803
vt 0.95884341 0.36937380
vt 0.48014769 0.62051541
vt 0.09931892 0.90119803
vt 0.10126760 0.90320462
vt 0.10126760 0.90320462
vt 0.10126760 0.90320462
vt 0.10126760 0.90320462
vt 0.11347490 0.90346062
vt 0.11347490 0.90346062
vt 0.11347490 0.90346062
vt 0.11347490 0.90346062
vt 0.11150140 0.90538460
vt 0.50082922 0.62105948
vt 0.90299159 0.32577279
vt 0.50309432 0.61879438
vt 0.90299147 0.32897601
vt 0.90299147 0.32897601
vt 0.94488031 0.48762321
vt 0.90299147 0.33217940
vt 0.50618851 0.61796528
vt 0.25618839 0.61796528
vt 0.91695452 0.04212248
vt 0.25309429 0.61879438
vt 0.91695452 0.04532581
vt 0.25082919 0.62105948
vt 0.91695452 0.04852920
vt 0.54477012 0.89860129
vt 0.90299147 0.00266838
vt 0.90299147 0.00266838
vt 0.54546082 0.89602393
vt 0.95884341 0.46848741
vt 0.90299147 0.00000000
vt 0.90299147 0.00533676
vt 0.54288322 0.90048820
vt 0.90299147 0.61796480
vt 0.55151743 0.00000021
vt 0.90299147 0.30898240
vt 0.55151743 0.30898270
vt 0.00000000 0.30898270
vt 0.55151743 0.30898240
vt 0.71611172 0.61796492
vt 0.00000000 0.00000000
vt 0.55151743 0.61796492
vt 0.73839730 0.61796492
vt 0.72491938 0.61796492
vt 0.72198349 0.30898240
vt 0.72198349 0.30898240
vt 0.72491938 0.30898240
vt 0.72198361 0.61796492
vt 0.72198361 0.61796492
vt 0.71904761 0.30898240
vt 0.71904761 0.30898240
vt 0.71904761 0.61796492
vt 0.71904761 0.61796492
vt 0.71611172 0.30898240
vt 0.73546130 0.30898240
vt 0.73546130 0.30898240
vt 0.73839718 0.30898240
vt 0.73546141 0.61796492
vt 0.73546141 0.61796492
vt 0.73252541 0.30898240
vt 0.73252541 0.30898240
vt 0.73252541 0.61796492
vt 0.73252541 0.61796492
vt 0.72958952 0.30898240
vt 0.72958952 0.61796492
vt 0.00000000 0.90849388
vt 0.00000000 0.90849388
vt 0.01088732 0.91086912
vt 0.01088732 0.91086912
vt 0.01088732 0.91086912
vt 0.00945991 0.91276562
vt 0.00945991 0.91276562
vt 0.00945991 0.91276562
vt 0.00727385 0.90117878
vt 0.00727385 0.90117878
vt 0.01316654 0.91060478
vt 0.01316654 0.91060478
vt 0.01316654 0.91060478
vt 0.01759392 0.90128952
vt 0.01759392 0.90128952
vt 0.01489400 0.91220188
vt 0.01489400 0.91220188
vt 0.01489400 0.91220188
vt 0.02466869 0.90865612
vt 0.02466869 0.90865612
vt 0.01520878 0.91465080
vt 0.01520878 0.91465080
vt 0.01520878 0.91465080
vt 0.02466869 0.91892242
vt 0.02466869 0.91892242
vt 0.01378130 0.91654730
vt 0.01378130 0.91654730
vt 0.01378130 0.91654730
vt 0.01739484 0.92623752
vt 0.01739484 0.92623752
vt 0.01150214 0.91681159
vt 0.01150214 0.91681159
vt 0.01150214 0.91681159
vt 0.00707477 0.92612690
vt 0.00707477 0.92612690
vt 0.00977468 0.91521448
vt 0.00977468 0.91521448
vt 0.00977468 0.91521448
vt 0.00000000 0.91876030
vt 0.00000000 0.91876030
vt 0.04933744 0.91892242
vt 0.04933744 0.91892242
vt 0.03845006 0.91654730
vt 0.03845006 0.91654730
vt 0.03845006 0.91654730
vt 0.03987753 0.91465092
vt 0.03987753 0.91465092
vt 0.03987753 0.91465092
vt 0.04206359 0.92623752
vt 0.04206359 0.92623752
vt 0.03617089 0.91681159
vt 0.03617089 0.91681159
vt 0.03617089 0.91681159
vt 0.03174346 0.92612690
vt 0.03174346 0.92612690
vt 0.03444337 0.91521448
vt 0.03444337 0.91521448
vt 0.03444337 0.91521448
vt 0.02466869 0.91876030
vt 0.02466869 0.91876030
vt 0.03412866 0.91276550
vt 0.03412866 0.91276550
vt 0.03412866 0.91276550
vt 0.02466869 0.90849388
vt 0.02466869 0.90849388
vt 0.03555607 0.91086912
vt 0.03555607 0.91086912
vt 0.03555607 0.91086912
vt 0.03194260 0.90117890
vt 0.03194260 0.90117890
vt 0.03783524 0.91060478
vt 0.03783524 0.91060478
vt 0.03783524 0.91060478
vt 0.04226267 0.90128952
vt 0.04226267 0.90128952
vt 0.03956276 0.91220188
vt 0.03956276 0.91220188
vt 0.03956276 0.91220188
vt 0.04933744 0.90865612
vt 0.04933744 0.90865612
vt 0.75000012 0.62051529
vt 0.11562010 0.90117878
vt 0.11562010 0.90117878
vt 0.90299147 0.61284292
vt 0.95884329 0.18468690
vt 0.76985228 0.77841431
vt 0.95884329 0.15789901
vt 0.75000000 0.77841431
vt 0.90299147 0.45494381
vt 0.94488043 0.24381161
vt 0.91695440 0.33217940
vt 0.25000000 0.90117878
vt 0.94488043 0.18468690
vt 0.97280628 0.15789901
vt 0.23014760 0.77841443
vt 0.91695440 0.45494381
vt 0.25000000 0.77841443
vt 0.75000000 0.90117872
vt 0.93091750 0.24381161
vt 0.90299147 0.33217940
vt 0.94488043 0.22395919
vt 0.23014760 0.90117878
vt 0.13209391 0.92324507
vt 0.97280628 0.00000000
vt 0.23014760 0.62051552
vt 0.13209391 0.92324507
vt 0.91695452 0.61284292
vt 0.13209391 0.90119958
vt 0.13209391 0.90119958
vt 0.25000000 0.62051552
vt 0.93091750 0.03927230
vt 0.95453918 0.90117872
vt 0.93091750 0.22395919
vt 0.76985228 0.90117872
vt 0.12793019 0.90526909
vt 0.11978380 0.91915488
vt 0.11962970 0.90541571
vt 0.93091750 0.00000000
vt 0.99381161 0.90117872
vt 0.93091738 0.00961000
vt 1.00000000 0.89499039
vt 0.95884341 0.15789901
vt 0.95453918 0.77841443
vt 0.95884329 0.00000000
vt 0.04546076 0.90117878
vt 0.94488043 0.03927230
vt 0.97280628 0.15789901
vt 0.94488031 0.00000000
vt 0.04546076 0.77841443
vt 1.00000000 0.62415361
vt 0.93091750 0.28044689
vt 0.91695452 0.12618600
vt 0.00000000 0.77841443
vt 1.00000000 0.77841443
vt 0.93091750 0.12618600
vt 0.00000000 0.89499050
vt 0.91695452 0.00961000
vt 0.00618839 0.61796528
vt 0.91695452 0.29005691
vt 0.93091750 0.32417440
vt 0.95969421 0.61796522
vt 0.91695452 0.32417440
vt 0.04030579 0.61796528
vt 0.95453918 0.62312013
vt 0.93091750 0.33217961
vt 0.95884341 0.31319329
vt 0.99381161 0.61796522
vt 0.93091750 0.29005691
vt 0.04546070 0.62312019
vt 0.97280628 0.31319329
vt 0.91695452 0.33217961
vt 0.00000000 0.62415367
vt 0.91695452 0.28044689
vt 0.47850570 0.61796528
vt 0.20771991 0.61796528
vt 0.20100330 0.61796528
vt 0.49148530 0.61796522
vt 0.19474021 0.61796528
vt 0.19787180 0.61796528
vt 0.19787180 0.61796528
vt 0.21085140 0.61796528
vt 0.21085140 0.61796528
vt 0.21398281 0.61796528
vt 0.49461681 0.61796528
vt 0.49461681 0.61796528
vt 0.49774829 0.61796528
vt 0.48163730 0.61796528
vt 0.48163730 0.61796528
vt 0.50722218 0.61796528
vt 0.12985539 0.90326112
vt 0.12985539 0.90326112
vt 0.12985539 0.90326112
vt 0.12985539 0.90326112
vt 0.11764200 0.90348083
vt 0.11764200 0.90348083
vt 0.11764200 0.90348083
vt 0.11764200 0.90348083
vt 0.11562010 0.92322439
vt 0.76985240 0.62051529
vt 0.11562010 0.92322439
vt 0.95884329 0.00000000
vt 0.11785860 0.92116290
vt 0.11785860 0.92116290
vt 0.11785860 0.92116290
vt 0.11785860 0.92116290
vt 0.13007189 0.92094320
vt 0.13007189 0.92094320
vt 0.13007189 0.92094320
vt 0.13007189 0.92094320
vt 0.12808430 0.91900832
vt 0.91695452 0.00640666
vt 0.00082918 0.89808470
vt 0.91695452 0.00320333
vt 0.91695452 0.00320333
vt 0.00309425 0.90034968
vt 0.93091738 0.00640666
vt 0.99917078 0.89808452
vt 0.00618839 0.90117878
vt 0.94488043 0.00000000
vt 0.91695452 0.00000000
vt 0.93091738 0.00320333
vt 0.99690580 0.90034962
vt 0.93091738 0.00320333
vt 0.00309414 0.61879438
vt 0.91695452 0.28685361
vt 0.00082911 0.62105948
vt 0.91695452 0.28365019
vt 0.93091750 0.28685361
vt 0.99690580 0.61879432
vt 0.99917090 0.62105942
vt 0.93091750 0.28365019
vt 0.04477006 0.62054270
vt 0.91695452 0.32951119
vt 0.91695452 0.32951119
vt 0.04288321 0.61865592
vt 0.91695452 0.32684270
vt 0.93091738 0.32951119
vt 0.95522988 0.62054270
vt 0.93091738 0.32951119
vt 0.93091750 0.32684270
vt 0.95711672 0.61865592
vt 0.90299147 0.00000000
vt 0.55151743 0.61796528
vt 0.71611172 0.00000000
vt 0.00000000 0.61796528
vt 0.55151743 0.00000000
vt 0.73839730 0.00000000
vt 0.72491938 0.00000000
vt 0.72198361 0.00000000
vt 0.72198361 0.00000000
vt 0.71904761 0.00000000
vt 0.71904761 0.00000000
vt 0.73546141 0.00000000
vt 0.73546141 0.00000000
vt 0.73252541 0.00000000
vt 0.73252541 0.00000000
vt 0.72958952 0.00000000
vt 0.08361762 0.91456419
vt 0.08361762 0.91456419
vt 0.08361762 0.91456419
vt 0.07413089 0.90848517
vt 0.07413089 0.90848517
vt 0.08384829 0.91210192
vt 0.08384829 0.91210192
vt 0.08384829 0.91210192
vt 0.08494645 0.91649967
vt 0.08494645 0.91649967
vt 0.08494645 0.91649967
vt 0.07407677 0.91871661
vt 0.07407677 0.91871661
vt 0.08722972 0.91674668
vt 0.08722972 0.91674668
vt 0.08722972 0.91674668
vt 0.08124649 0.92613220
vt 0.08124649 0.92613220
vt 0.08904457 0.91520917
vt 0.08904457 0.91520917
vt 0.08904457 0.91520917
vt 0.09155136 0.92613220
vt 0.09155136 0.92613220
vt 0.08927524 0.91274691
vt 0.08927524 0.91274691
vt 0.08927524 0.91274691
vt 0.09876197 0.91882592
vt 0.09876197 0.91882592
vt 0.08794647 0.91081130
vt 0.08794647 0.91081130
vt 0.08794647 0.91081130
vt 0.09881609 0.90859449
vt 0.09881609 0.90859449
vt 0.08566313 0.91056430
vt 0.08566313 0.91056430
vt 0.08566313 0.91056430
vt 0.09164643 0.90117890
vt 0.09164643 0.90117890
vt 0.08134150 0.90117890
vt 0.08134150 0.90117890
vt 0.05887830 0.91456407
vt 0.05887830 0.91456407
vt 0.05887830 0.91456407
vt 0.04939156 0.90848511
vt 0.04939156 0.90848511
vt 0.05910897 0.91210192
vt 0.05910897 0.91210192
vt 0.05910897 0.91210192
vt 0.06020706 0.91649967
vt 0.06020706 0.91649967
vt 0.06020706 0.91649967
vt 0.04933744 0.91871649
vt 0.04933744 0.91871649
vt 0.06249040 0.91674668
vt 0.06249040 0.91674668
vt 0.06249040 0.91674668
vt 0.05650711 0.92613208
vt 0.05650711 0.92613208
vt 0.06430524 0.91520912
vt 0.06430524 0.91520912
vt 0.06430524 0.91520912
vt 0.06681203 0.92613208
vt 0.06681203 0.92613208
vt 0.06453591 0.91274679
vt 0.06453591 0.91274679
vt 0.06453591 0.91274679
vt 0.07402265 0.91882592
vt 0.07402265 0.91882592
vt 0.06320714 0.91081130
vt 0.06320714 0.91081130
vt 0.06320714 0.91081130
vt 0.07407677 0.90859443
vt 0.07407677 0.90859443
vt 0.06092387 0.91056430
vt 0.06092387 0.91056430
vt 0.06092387 0.91056430
vt 0.06690710 0.90117878
vt 0.06690710 0.90117878
vt 0.05660218 0.90117878
vt 0.05660218 0.90117878
vt 0.20771991 0.30898270
vt 0.48476881 0.00000017
vt 0.48476881 0.61796528
f 1/1 6/6 9/9
f 12/12 14/14 16/16
f 18/18 21/21 15/15
f 26/26 2/2 11/11
f 13/13 8/8 17/17
f 24/24 16/16 29/29
f 18/18 32/32 34/34
f 35/35 36/36 37/37
f 33/33 9/9 22/22
f 40/40 41/41 43/43
f 33/33 47/47 1/1
f 12/12 49/49 19/19
f 3/3 51/51 10/10
f 48/48 54/54 32/32
f 57/57 58/58 61/61
f 57/57 44/44 62/62
f 65/65 66/66 69/69
f 71/71 73/73 75/75
f 79/79 80/80 82/82
f 84/84 85/85 86/86
f 87/87 88/88 89/89
f 90/90 91/91 92/92
f 93/93 95/95 96/96
f 98/98 88/88 94/94
f 84/84 100/100 101/101
f 103/103 87/87 99/99
f 104/104 105/105 107/107
f 109/109 91/91 106/106
f 85/85 111/111 86/86
f 113/113 90/90 110/110
f 104/104 114/114 115/115
f 7/7 117/117 30/30
f 122/122 36/36 116/116
f 127/127 123/123 4/4
f 130/130 37/37 121/121
f 23/23 129/129 124/124
f 132/132 35/35 131/131
f 27/27 133/133 25/25
f 119/119 136/136 134/134
f 17/17 5/5 28/28
f 44/44 138/138 62/62
f 42/42 140/140 138/138
f 39/39 143/143 141/141
f 146/146 78/78 66/66
f 148/148 81/81 78/78
f 150/150 83/83 81/81
f 139/139 144/144 63/63
f 77/77 153/153 156/156
f 74/74 157/157 152/152
f 70/70 69/69 157/157
f 45/45 155/155 52/52
f 115/115 160/160 162/162
f 163/163 93/93 96/96
f 164/164 165/165 167/167
f 168/168 161/161 159/159
f 169/169 171/171 172/172
f 173/173 176/176 170/170
f 177/177 179/179 175/175
f 168/168 180/180 182/182
f 183/183 185/185 181/181
f 187/187 189/189 186/186
f 172/172 190/190 169/169
f 191/191 194/194 196/196
f 200/200 201/201 195/195
f 204/204 207/207 202/202
f 210/210 212/212 208/208
f 215/215 216/216 211/211
f 219/219 223/223 218/218
f 224/224 227/227 222/222
f 229/229 198/198 228/228
f 217/217 221/221 226/226
f 232/232 233/233 237/237
f 239/239 242/242 234/234
f 244/244 246/246 243/243
f 249/249 252/252 247/247
f 254/254 257/257 251/251
f 260/260 261/261 256/256
f 264/264 268/268 263/263
f 269/269 236/236 266/266
f 258/258 262/262 267/267
f 271/271 276/276 278/278
f 282/282 285/285 287/287
f 289/289 291/291 280/280
f 277/277 294/294 284/284
f 279/279 281/281 286/286
f 287/287 295/295 300/300
f 301/301 291/291 303/303
f 305/305 306/306 307/307
f 278/278 304/304 288/288
f 309/309 302/302 311/311
f 313/313 304/304 276/276
f 315/315 285/285 292/292
f 318/318 275/275 283/283
f 308/308 316/316 301/301
f 321/321 322/322 325/325
f 310/310 322/322 327/327
f 329/329 330/330 332/332
f 334/334 337/337 320/320
f 339/339 319/319 342/342
f 344/344 84/84 86/86
f 88/88 345/345 346/346
f 347/347 90/90 92/92
f 95/95 348/348 96/96
f 88/88 350/350 94/94
f 351/351 84/84 353/353
f 345/345 103/103 352/352
f 355/355 104/104 356/356
f 347/347 109/109 354/354
f 111/111 344/344 86/86
f 90/90 357/357 110/110
f 359/359 104/104 115/115
f 362/362 273/273 298/298
f 305/305 367/367 360/360
f 366/366 368/368 272/272
f 307/307 373/373 365/365
f 375/375 293/293 370/370
f 306/306 379/379 374/374
f 378/378 299/299 296/296
f 380/380 361/361 377/377
f 274/274 286/286 297/297
f 381/381 310/310 327/327
f 384/384 386/386 381/381
f 390/390 391/391 383/383
f 395/395 338/338 329/329
f 397/397 398/398 395/395
f 343/343 401/401 397/397
f 326/326 323/323 319/319
f 404/404 335/335 341/341
f 406/406 407/407 403/403
f 332/332 410/410 406/406
f 340/340 312/312 317/317
f 413/413 115/115 162/162
f 348/348 163/163 96/96
f 414/414 164/164 416/416
f 161/161 417/417 412/412
f 171/171 418/418 172/172
f 176/176 419/419 170/170
f 179/179 422/422 175/175
f 180/180 417/417 182/182
f 185/185 424/424 181/181
f 189/189 426/426 186/186
f 427/427 172/172 418/418
f 428/428 431/431 434/434
f 437/437 439/439 430/430
f 442/442 445/445 436/436
f 447/447 449/449 441/441
f 451/451 455/455 446/446
f 458/458 459/459 453/453
f 462/462 464/464 456/456
f 435/435 466/466 463/463
f 443/443 438/438 429/429
f 468/468 471/471 473/473
f 476/476 480/480 470/470
f 481/481 485/485 477/477
f 487/487 490/490 482/482
f 491/491 495/495 486/486
f 498/498 499/499 493/493
f 501/501 504/504 496/496
f 474/474 506/506 503/503
f 483/483 478/478 469/469
f 1/1 126/126 6/6
f 12/12 19/19 14/14
f 18/18 34/34 21/21
f 26/26 125/125 2/2
f 13/13 20/20 8/8
f 24/24 12/12 16/16
f 18/18 48/48 32/32
f 35/35 136/136 36/36
f 33/33 1/1 9/9
f 60/60 47/47 43/43
f 47/47 31/31 43/43
f 31/31 53/53 43/43
f 53/53 40/40 43/43
f 33/33 31/31 47/47
f 12/12 50/50 49/49
f 3/3 46/46 51/51
f 48/48 142/142 54/54
f 57/57 83/83 58/58
f 57/57 61/61 44/44
f 65/65 146/146 66/66
f 75/75 47/47 59/59
f 47/47 60/60 59/59
f 59/59 149/149 145/145
f 75/75 59/59 145/145
f 149/149 147/147 145/145
f 145/145 64/64 75/75
f 64/64 71/71 75/75
f 82/82 56/56 50/50
f 50/50 154/154 82/82
f 154/154 151/151 68/68
f 82/82 154/154 67/67
f 151/151 158/158 68/68
f 68/68 67/67 154/154
f 67/67 79/79 82/82
f 84/84 101/101 85/85
f 87/87 508/508 88/88
f 90/90 509/509 91/91
f 93/93 97/97 95/95
f 98/98 89/89 88/88
f 84/84 102/102 100/100
f 103/103 508/508 87/87
f 104/104 108/108 105/105
f 109/109 92/92 91/91
f 85/85 112/112 111/111
f 113/113 509/509 90/90
f 104/104 107/107 114/114
f 7/7 120/120 117/117
f 122/122 37/37 36/36
f 127/127 128/128 123/123
f 130/130 35/35 37/37
f 23/23 135/135 129/129
f 132/132 136/136 35/35
f 27/27 118/118 133/133
f 119/119 36/36 136/136
f 17/17 8/8 5/5
f 44/44 42/42 138/138
f 42/42 38/38 140/140
f 39/39 55/55 143/143
f 146/146 148/148 78/78
f 148/148 150/150 81/81
f 150/150 58/58 83/83
f 144/144 49/49 63/63
f 49/49 50/50 63/63
f 50/50 56/56 63/63
f 63/63 137/137 139/139
f 77/77 72/72 153/153
f 74/74 70/70 157/157
f 70/70 65/65 69/69
f 45/45 76/76 155/155
f 115/115 114/114 160/160
f 163/163 166/166 93/93
f 164/164 179/179 165/165
f 168/168 182/182 161/161
f 169/169 174/174 171/171
f 173/173 178/178 176/176
f 177/177 165/165 179/179
f 168/168 184/184 180/180
f 183/183 188/188 185/185
f 187/187 190/190 189/189
f 172/172 189/189 190/190
f 191/191 199/199 194/194
f 200/200 205/205 201/201
f 204/204 209/209 207/207
f 210/210 214/214 212/212
f 215/215 220/220 216/216
f 219/219 225/225 223/223
f 224/224 230/230 227/227
f 229/229 192/192 198/198
f 226/226 197/197 206/206
f 197/197 193/193 206/206
f 193/193 203/203 206/206
f 206/206 213/213 226/226
f 213/213 217/217 226/226
f 232/232 240/240 233/233
f 239/239 245/245 242/242
f 244/244 250/250 246/246
f 249/249 255/255 252/252
f 254/254 259/259 257/257
f 260/260 265/265 261/261
f 264/264 270/270 268/268
f 269/269 231/231 236/236
f 267/267 238/238 248/248
f 238/238 235/235 248/248
f 235/235 241/241 248/248
f 248/248 253/253 267/267
f 253/253 258/258 267/267
f 271/271 369/369 276/276
f 282/282 292/292 285/285
f 289/289 303/303 291/291
f 277/277 371/371 294/294
f 279/279 290/290 281/281
f 287/287 285/285 295/295
f 301/301 316/316 291/291
f 305/305 380/380 306/306
f 278/278 276/276 304/304
f 302/302 313/313 311/311
f 313/313 324/324 311/311
f 311/311 387/387 309/309
f 387/387 392/392 309/309
f 313/313 302/302 304/304
f 315/315 319/319 285/285
f 318/318 314/314 275/275
f 308/308 389/389 316/316
f 321/321 343/343 322/322
f 310/310 325/325 322/322
f 329/329 338/338 330/330
f 324/324 313/313 320/320
f 313/313 334/334 320/320
f 334/334 408/408 411/411
f 411/411 331/331 334/334
f 331/331 337/337 334/334
f 337/337 399/399 400/400
f 400/400 320/320 337/337
f 319/319 323/323 342/342
f 342/342 396/396 394/394
f 394/394 328/328 342/342
f 328/328 333/333 339/339
f 342/342 328/328 339/339
f 333/333 405/405 402/402
f 402/402 339/339 333/333
f 344/344 353/353 84/84
f 88/88 508/508 345/345
f 347/347 510/510 90/90
f 95/95 349/349 348/348
f 88/88 346/346 350/350
f 351/351 102/102 84/84
f 345/345 508/508 103/103
f 355/355 108/108 104/104
f 347/347 92/92 109/109
f 111/111 358/358 344/344
f 90/90 510/510 357/357
f 359/359 356/356 104/104
f 362/362 364/364 273/273
f 305/305 307/307 367/367
f 366/366 372/372 368/368
f 307/307 306/306 373/373
f 375/375 376/376 293/293
f 306/306 380/380 379/379
f 378/378 363/363 299/299
f 380/380 305/305 361/361
f 274/274 279/279 286/286
f 381/381 386/386 310/310
f 384/384 393/393 386/386
f 390/390 308/308 391/391
f 395/395 398/398 338/338
f 397/397 401/401 398/398
f 343/343 321/321 401/401
f 319/319 315/315 326/326
f 315/315 388/388 326/326
f 388/388 385/385 382/382
f 382/382 326/326 388/388
f 404/404 409/409 335/335
f 406/406 410/410 407/407
f 332/332 330/330 410/410
f 340/340 336/336 312/312
f 413/413 359/359 115/115
f 348/348 415/415 163/163
f 414/414 179/179 164/164
f 161/161 182/182 417/417
f 171/171 420/420 418/418
f 176/176 421/421 419/419
f 179/179 414/414 422/422
f 180/180 423/423 417/417
f 185/185 425/425 424/424
f 189/189 427/427 426/426
f 427/427 189/189 172/172
f 428/428 440/440 431/431
f 437/437 444/444 439/439
f 442/442 450/450 445/445
f 447/447 454/454 449/449
f 451/451 460/460 455/455
f 458/458 465/465 459/459
f 462/462 467/467 464/464
f 435/435 432/432 466/466
f 429/429 433/433 452/452
f 433/433 461/461 452/452
f 461/461 457/457 452/452
f 452/452 448/448 429/429
f 448/448 443/443 429/429
f 468/468 479/479 471/471
f 476/476 484/484 480/480
f 481/481 489/489 485/485
f 487/487 494/494 490/490
f 491/491 500/500 495/495
f 498/498 505/505 499/499
f 501/501 507/507 504/504
f 474/474 472/472 506/506
f 469/469 475/475 492/492
f 475/475 502/502 492/492
f 502/502 497/497 492/492
f 492/492 488/488 469/469
f 488/488 483/483 469/469

